<?xml version="1.0" encoding="UTF-8" standalone="no"?>
<!DOCTYPE svg PUBLIC "-//W3C//DTD SVG 1.1//EN"
 "http://www.w3.org/Graphics/SVG/1.1/DTD/svg11.dtd">
<!-- Generated by graphviz version 14.1.5 (20260411.2331)
 -->
<!-- Title: MiniDbmsArchitecture Pages: 1 -->
<svg width="2389pt" height="437pt"
 viewBox="0.00 0.00 2389.00 437.00" xmlns="http://www.w3.org/2000/svg" xmlns:xlink="http://www.w3.org/1999/xlink">
<g id="graph0" class="graph" transform="scale(1 1) rotate(0) translate(25.2 412.2)">
<title>MiniDbmsArchitecture</title>
<g id="clust1" class="cluster">
<title>cluster_input</title>
<path fill="#eff6ff" stroke="#bfdbfe" stroke-width="1.8" d="M20,-94C20,-94 167.22,-94 167.22,-94 173.22,-94 179.22,-100 179.22,-106 179.22,-106 179.22,-322 179.22,-322 179.22,-328 173.22,-334 167.22,-334 167.22,-334 20,-334 20,-334 14,-334 8,-328 8,-322 8,-322 8,-106 8,-106 8,-100 14,-94 20,-94"/>
<text xml:space="preserve" text-anchor="middle" x="93.61" y="-313.85" font-family="Malgun Gothic" font-size="17.00">1. 입력</text>
</g>
<g id="clust2" class="cluster">
<title>cluster_api</title>
<path fill="#ecfeff" stroke="#bae6fd" stroke-width="1.8" d="M238.22,-217C238.22,-217 830.13,-217 830.13,-217 836.13,-217 842.13,-223 842.13,-229 842.13,-229 842.13,-306 842.13,-306 842.13,-312 836.13,-318 830.13,-318 830.13,-318 238.22,-318 238.22,-318 232.22,-318 226.22,-312 226.22,-306 226.22,-306 226.22,-229 226.22,-229 226.22,-223 232.22,-217 238.22,-217"/>
<text xml:space="preserve" text-anchor="middle" x="534.17" y="-297.85" font-family="Malgun Gothic" font-size="17.00">2. API 서버</text>
</g>
<g id="clust3" class="cluster">
<title>cluster_engine</title>
<path fill="#f0fdf4" stroke="#bbf7d0" stroke-width="1.8" d="M1227.85,-138C1227.85,-138 1837.01,-138 1837.01,-138 1843.01,-138 1849.01,-144 1849.01,-150 1849.01,-150 1849.01,-227 1849.01,-227 1849.01,-233 1843.01,-239 1837.01,-239 1837.01,-239 1227.85,-239 1227.85,-239 1221.85,-239 1215.85,-233 1215.85,-227 1215.85,-227 1215.85,-150 1215.85,-150 1215.85,-144 1221.85,-138 1227.85,-138"/>
<text xml:space="preserve" text-anchor="middle" x="1532.43" y="-218.85" font-family="Malgun Gothic" font-size="17.00">3. 공통 SQL 엔진</text>
</g>
<g id="clust4" class="cluster">
<title>cluster_data</title>
<path fill="#fff7ed" stroke="#fed7aa" stroke-width="1.8" d="M1908.01,-180C1908.01,-180 2318.2,-180 2318.2,-180 2324.2,-180 2330.2,-186 2330.2,-192 2330.2,-192 2330.2,-367 2330.2,-367 2330.2,-373 2324.2,-379 2318.2,-379 2318.2,-379 1908.01,-379 1908.01,-379 1902.01,-379 1896.01,-373 1896.01,-367 1896.01,-367 1896.01,-192 1896.01,-192 1896.01,-186 1902.01,-180 1908.01,-180"/>
<text xml:space="preserve" text-anchor="middle" x="2113.1" y="-358.85" font-family="Malgun Gothic" font-size="17.00">4. 데이터 계층</text>
</g>
<g id="clust5" class="cluster">
<title>cluster_output</title>
<path fill="#fdf2f8" stroke="#fbcfe8" stroke-width="1.8" d="M2194.6,-8C2194.6,-8 2317.07,-8 2317.07,-8 2323.07,-8 2329.07,-14 2329.07,-20 2329.07,-20 2329.07,-160 2329.07,-160 2329.07,-166 2323.07,-172 2317.07,-172 2317.07,-172 2194.6,-172 2194.6,-172 2188.6,-172 2182.6,-166 2182.6,-160 2182.6,-160 2182.6,-20 2182.6,-20 2182.6,-14 2188.6,-8 2194.6,-8"/>
<text xml:space="preserve" text-anchor="middle" x="2255.84" y="-151.85" font-family="Malgun Gothic" font-size="17.00">5. 출력</text>
</g>
<!-- cli&#45;&gt;facade -->
<g id="edge1" class="edge">
<title>cli&#45;&gt;facade</title>
<path fill="none" stroke="#475569" stroke-width="1.7" d="M156.68,-140.69C221.96,-142.46 315.33,-145 315.33,-145 315.33,-145 315.33,-145 758.27,-145 758.27,-145 853.46,-154.06 935.58,-161.87"/>
<polygon fill="#475569" stroke="#475569" stroke-width="1.7" points="935.24,-164.47 942.96,-162.57 935.74,-159.24 935.24,-164.47"/>
<text xml:space="preserve" text-anchor="middle" x="539.42" y="-150.1" font-family="Malgun Gothic" font-size="12.00">SQL 전달</text>
</g>
<!-- http&#45;&gt;accept -->
<g id="edge2" class="edge">
<title>http&#45;&gt;accept</title>
<path fill="none" stroke="#475569" stroke-width="1.7" d="M171.81,-255.9C188.54,-255.45 206.39,-254.96 223.62,-254.49"/>
<polygon fill="#475569" stroke="#475569" stroke-width="1.7" points="223.68,-257.12 231.1,-254.29 223.54,-251.87 223.68,-257.12"/>
</g>
<!-- accept&#45;&gt;pool -->
<g id="edge3" class="edge">
<title>accept&#45;&gt;pool</title>
<path fill="none" stroke="#475569" stroke-width="1.7" d="M399.03,-252C415.89,-252 433.72,-252 450.79,-252"/>
<polygon fill="#475569" stroke="#475569" stroke-width="1.7" points="450.66,-254.63 458.16,-252 450.66,-249.38 450.66,-254.63"/>
</g>
<!-- pool&#45;&gt;router -->
<g id="edge4" class="edge">
<title>pool&#45;&gt;router</title>
<path fill="none" stroke="#475569" stroke-width="1.7" d="M618.05,-252C634.82,-252 652.65,-252 669.74,-252"/>
<polygon fill="#475569" stroke="#475569" stroke-width="1.7" points="669.63,-254.63 677.13,-252 669.63,-249.38 669.63,-254.63"/>
</g>
<!-- router&#45;&gt;facade -->
<g id="edge5" class="edge">
<title>router&#45;&gt;facade</title>
<path fill="none" stroke="#475569" stroke-width="1.7" d="M834.84,-231.45C866.81,-222.87 904.62,-212.72 939.68,-203.31"/>
<polygon fill="#475569" stroke="#475569" stroke-width="1.7" points="939.96,-205.95 946.52,-201.47 938.6,-200.88 939.96,-205.95"/>
<text xml:space="preserve" text-anchor="middle" x="890.25" y="-227" font-family="Malgun Gothic" font-size="12.00">SQL 추출</text>
</g>
<!-- facade&#45;&gt;tokenizer -->
<g id="edge6" class="edge">
<title>facade&#45;&gt;tokenizer</title>
<path fill="none" stroke="#475569" stroke-width="1.7" d="M1161.86,-173C1179.2,-173 1196.92,-173 1213.58,-173"/>
<polygon fill="#475569" stroke="#475569" stroke-width="1.7" points="1213.18,-175.63 1220.68,-173 1213.18,-170.38 1213.18,-175.63"/>
</g>
<!-- tokenizer&#45;&gt;parser -->
<g id="edge7" class="edge">
<title>tokenizer&#45;&gt;parser</title>
<path fill="none" stroke="#475569" stroke-width="1.7" d="M1372.15,-173C1388.89,-173 1406.92,-173 1424.49,-173"/>
<polygon fill="#475569" stroke="#475569" stroke-width="1.7" points="1424.11,-175.63 1431.61,-173 1424.11,-170.38 1424.11,-175.63"/>
</g>
<!-- parser&#45;&gt;executor -->
<g id="edge8" class="edge">
<title>parser&#45;&gt;executor</title>
<path fill="none" stroke="#475569" stroke-width="1.7" d="M1612.04,-173C1629.04,-173 1646.9,-173 1664.04,-173"/>
<polygon fill="#475569" stroke="#475569" stroke-width="1.7" points="1663.97,-175.63 1671.47,-173 1663.97,-170.38 1663.97,-175.63"/>
</g>
<!-- executor&#45;&gt;runtime -->
<g id="edge9" class="edge">
<title>executor&#45;&gt;runtime</title>
<path fill="none" stroke="#475569" stroke-width="1.7" d="M1841.71,-194.66C1858.63,-199.08 1876.54,-203.76 1893.83,-208.28"/>
<polygon fill="#475569" stroke="#475569" stroke-width="1.7" points="1892.95,-210.76 1900.87,-210.11 1894.28,-205.68 1892.95,-210.76"/>
</g>
<!-- executor&#45;&gt;result -->
<g id="edge12" class="edge">
<title>executor&#45;&gt;result</title>
<path fill="none" stroke="#475569" stroke-width="1.7" d="M1841.71,-152.06C1862.12,-146.91 1884,-141.38 1904.46,-136.22"/>
<polygon fill="#475569" stroke="#475569" stroke-width="1.7" points="1904.95,-138.8 1911.58,-134.42 1903.66,-133.71 1904.95,-138.8"/>
</g>
<!-- runtime&#45;&gt;bptree -->
<g id="edge10" class="edge">
<title>runtime&#45;&gt;bptree</title>
<path fill="none" stroke="#475569" stroke-width="1.7" d="M2075.59,-227.21C2109.79,-224.88 2148.82,-222.22 2181.71,-219.98"/>
<polygon fill="#475569" stroke="#475569" stroke-width="1.7" points="2181.84,-222.6 2189.14,-219.47 2181.48,-217.36 2181.84,-222.6"/>
<text xml:space="preserve" text-anchor="middle" x="2132.23" y="-230.18" font-family="Malgun Gothic" font-size="12.00">id 인덱스</text>
</g>
<!-- runtime&#45;&gt;csv -->
<g id="edge11" class="edge">
<title>runtime&#45;&gt;csv</title>
<path fill="none" stroke="#475569" stroke-width="1.7" d="M2075.59,-258.75C2108.97,-268.86 2146.96,-280.35 2179.35,-290.15"/>
<polygon fill="#475569" stroke="#475569" stroke-width="1.7" points="2178.36,-292.6 2186.3,-292.26 2179.89,-287.57 2178.36,-292.6"/>
<text xml:space="preserve" text-anchor="middle" x="2132.23" y="-287.62" font-family="Malgun Gothic" font-size="12.00">영구 저장</text>
</g>
<!-- result&#45;&gt;cliout -->
<g id="edge13" class="edge">
<title>result&#45;&gt;cliout</title>
<path fill="none" stroke="#475569" stroke-width="1.7" d="M2064.83,-115C2107.07,-115 2159.11,-115 2198.05,-115"/>
<polygon fill="#475569" stroke="#475569" stroke-width="1.7" points="2197.58,-117.63 2205.08,-115 2197.58,-112.38 2197.58,-117.63"/>
</g>
<!-- result&#45;&gt;jsonout -->
<g id="edge14" class="edge">
<title>result&#45;&gt;jsonout</title>
<path fill="none" stroke="#475569" stroke-width="1.7" d="M2064.83,-92.22C2102.42,-80.7 2147.78,-66.8 2184.76,-55.48"/>
<polygon fill="#475569" stroke="#475569" stroke-width="1.7" points="2185.1,-58.11 2191.5,-53.41 2183.56,-53.09 2185.1,-58.11"/>
</g>
<!-- cli -->
<g id="node1" class="node">
<title>cli</title>
<path fill="#dbeafe" stroke="#3b82f6" stroke-width="1.5" d="M144.22,-175.85C144.22,-175.85 43,-175.85 43,-175.85 37,-175.85 31,-169.85 31,-163.85 31,-163.85 31,-114.15 31,-114.15 31,-108.15 37,-102.15 43,-102.15 43,-102.15 144.22,-102.15 144.22,-102.15 150.22,-102.15 156.22,-108.15 156.22,-114.15 156.22,-114.15 156.22,-163.85 156.22,-163.85 156.22,-169.85 150.22,-175.85 144.22,-175.85"/>
<text xml:space="preserve" text-anchor="middle" x="93.61" y="-155.12" font-family="Malgun Gothic" font-size="15.00">CLI</text>
<text xml:space="preserve" text-anchor="middle" x="93.61" y="-134.88" font-family="Malgun Gothic" font-size="15.00">sql_processor</text>
<text xml:space="preserve" text-anchor="middle" x="93.61" y="-114.62" font-family="Malgun Gothic" font-size="15.00">REPL / .sql 파일</text>
</g>
<!-- http -->
<g id="node2" class="node">
<title>http</title>
<path fill="#dbeafe" stroke="#3b82f6" stroke-width="1.5" d="M159.22,-294.86C159.22,-294.86 28,-294.86 28,-294.86 22,-294.86 16,-288.86 16,-282.86 16,-282.86 16,-233.15 16,-233.15 16,-227.15 22,-221.15 28,-221.15 28,-221.15 159.22,-221.15 159.22,-221.15 165.22,-221.15 171.22,-227.15 171.22,-233.15 171.22,-233.15 171.22,-282.86 171.22,-282.86 171.22,-288.86 165.22,-294.86 159.22,-294.86"/>
<text xml:space="preserve" text-anchor="middle" x="93.61" y="-274.12" font-family="Malgun Gothic" font-size="15.00">HTTP Client</text>
<text xml:space="preserve" text-anchor="middle" x="93.61" y="-253.88" font-family="Malgun Gothic" font-size="15.00">curl / 외부 프로그램</text>
<text xml:space="preserve" text-anchor="middle" x="93.61" y="-233.62" font-family="Malgun Gothic" font-size="15.00">POST /query</text>
</g>
<!-- accept -->
<g id="node3" class="node">
<title>accept</title>
<path fill="#cffafe" stroke="#0891b2" stroke-width="1.5" d="M386.44,-278.73C386.44,-278.73 246.22,-278.73 246.22,-278.73 240.22,-278.73 234.22,-272.73 234.22,-266.73 234.22,-266.73 234.22,-237.27 234.22,-237.27 234.22,-231.27 240.22,-225.27 246.22,-225.27 246.22,-225.27 386.44,-225.27 386.44,-225.27 392.44,-225.27 398.44,-231.27 398.44,-237.27 398.44,-237.27 398.44,-266.73 398.44,-266.73 398.44,-272.73 392.44,-278.73 386.44,-278.73"/>
<text xml:space="preserve" text-anchor="middle" x="316.33" y="-258" font-family="Malgun Gothic" font-size="15.00">accept loop</text>
<text xml:space="preserve" text-anchor="middle" x="316.33" y="-237.75" font-family="Malgun Gothic" font-size="15.00">클라이언트 연결 수락</text>
</g>
<!-- pool -->
<g id="node4" class="node">
<title>pool</title>
<path fill="#cffafe" stroke="#0891b2" stroke-width="1.5" d="M605.41,-278.73C605.41,-278.73 473.44,-278.73 473.44,-278.73 467.44,-278.73 461.44,-272.73 461.44,-266.73 461.44,-266.73 461.44,-237.27 461.44,-237.27 461.44,-231.27 467.44,-225.27 473.44,-225.27 473.44,-225.27 605.41,-225.27 605.41,-225.27 611.41,-225.27 617.41,-231.27 617.41,-237.27 617.41,-237.27 617.41,-266.73 617.41,-266.73 617.41,-272.73 611.41,-278.73 605.41,-278.73"/>
<text xml:space="preserve" text-anchor="middle" x="539.42" y="-258" font-family="Malgun Gothic" font-size="15.00">thread pool</text>
<text xml:space="preserve" text-anchor="middle" x="539.42" y="-237.75" font-family="Malgun Gothic" font-size="15.00">job queue + worker</text>
</g>
<!-- router -->
<g id="node5" class="node">
<title>router</title>
<path fill="#cffafe" stroke="#0891b2" stroke-width="1.5" d="M822.13,-278.73C822.13,-278.73 692.41,-278.73 692.41,-278.73 686.41,-278.73 680.41,-272.73 680.41,-266.73 680.41,-266.73 680.41,-237.27 680.41,-237.27 680.41,-231.27 686.41,-225.27 692.41,-225.27 692.41,-225.27 822.13,-225.27 822.13,-225.27 828.13,-225.27 834.13,-231.27 834.13,-237.27 834.13,-237.27 834.13,-266.73 834.13,-266.73 834.13,-272.73 828.13,-278.73 822.13,-278.73"/>
<text xml:space="preserve" text-anchor="middle" x="757.27" y="-258" font-family="Malgun Gothic" font-size="15.00">request router</text>
<text xml:space="preserve" text-anchor="middle" x="757.27" y="-237.75" font-family="Malgun Gothic" font-size="15.00">/health /query 분기</text>
</g>
<!-- facade -->
<g id="node6" class="node">
<title>facade</title>
<path fill="#dcfce7" stroke="#16a34a" stroke-width="2.2" d="M1148.85,-199.73C1148.85,-199.73 958.38,-199.73 958.38,-199.73 952.38,-199.73 946.38,-193.73 946.38,-187.73 946.38,-187.73 946.38,-158.27 946.38,-158.27 946.38,-152.27 952.38,-146.27 958.38,-146.27 958.38,-146.27 1148.85,-146.27 1148.85,-146.27 1154.85,-146.27 1160.85,-152.27 1160.85,-158.27 1160.85,-158.27 1160.85,-187.73 1160.85,-187.73 1160.85,-193.73 1154.85,-199.73 1148.85,-199.73"/>
<text xml:space="preserve" text-anchor="middle" x="1053.61" y="-179" font-family="Malgun Gothic" font-size="15.00">DB Engine Facade</text>
<text xml:space="preserve" text-anchor="middle" x="1053.61" y="-158.75" font-family="Malgun Gothic" font-size="15.00">lock 획득 + SQL 실행 진입점</text>
</g>
<!-- tokenizer -->
<g id="node7" class="node">
<title>tokenizer</title>
<path fill="#dcfce7" stroke="#16a34a" stroke-width="1.5" d="M1359.57,-199.73C1359.57,-199.73 1235.85,-199.73 1235.85,-199.73 1229.85,-199.73 1223.85,-193.73 1223.85,-187.73 1223.85,-187.73 1223.85,-158.27 1223.85,-158.27 1223.85,-152.27 1229.85,-146.27 1235.85,-146.27 1235.85,-146.27 1359.57,-146.27 1359.57,-146.27 1365.57,-146.27 1371.57,-152.27 1371.57,-158.27 1371.57,-158.27 1371.57,-187.73 1371.57,-187.73 1371.57,-193.73 1365.57,-199.73 1359.57,-199.73"/>
<text xml:space="preserve" text-anchor="middle" x="1297.71" y="-179" font-family="Malgun Gothic" font-size="15.00">Tokenizer</text>
<text xml:space="preserve" text-anchor="middle" x="1297.71" y="-158.75" font-family="Malgun Gothic" font-size="15.00">SQL &#45;&gt; Token 배열</text>
</g>
<!-- parser -->
<g id="node8" class="node">
<title>parser</title>
<path fill="#dcfce7" stroke="#16a34a" stroke-width="1.5" d="M1599.54,-199.73C1599.54,-199.73 1446.57,-199.73 1446.57,-199.73 1440.57,-199.73 1434.57,-193.73 1434.57,-187.73 1434.57,-187.73 1434.57,-158.27 1434.57,-158.27 1434.57,-152.27 1440.57,-146.27 1446.57,-146.27 1446.57,-146.27 1599.54,-146.27 1599.54,-146.27 1605.54,-146.27 1611.54,-152.27 1611.54,-158.27 1611.54,-158.27 1611.54,-187.73 1611.54,-187.73 1611.54,-193.73 1605.54,-199.73 1599.54,-199.73"/>
<text xml:space="preserve" text-anchor="middle" x="1523.05" y="-179" font-family="Malgun Gothic" font-size="15.00">Parser</text>
<text xml:space="preserve" text-anchor="middle" x="1523.05" y="-158.75" font-family="Malgun Gothic" font-size="15.00">Token &#45;&gt; SqlStatement</text>
</g>
<!-- executor -->
<g id="node9" class="node">
<title>executor</title>
<path fill="#dcfce7" stroke="#16a34a" stroke-width="1.5" d="M1829.01,-199.73C1829.01,-199.73 1686.54,-199.73 1686.54,-199.73 1680.54,-199.73 1674.54,-193.73 1674.54,-187.73 1674.54,-187.73 1674.54,-158.27 1674.54,-158.27 1674.54,-152.27 1680.54,-146.27 1686.54,-146.27 1686.54,-146.27 1829.01,-146.27 1829.01,-146.27 1835.01,-146.27 1841.01,-152.27 1841.01,-158.27 1841.01,-158.27 1841.01,-187.73 1841.01,-187.73 1841.01,-193.73 1835.01,-199.73 1829.01,-199.73"/>
<text xml:space="preserve" text-anchor="middle" x="1757.77" y="-179" font-family="Malgun Gothic" font-size="15.00">Executor</text>
<text xml:space="preserve" text-anchor="middle" x="1757.77" y="-158.75" font-family="Malgun Gothic" font-size="15.00">INSERT / SELECT 실행</text>
</g>
<!-- runtime -->
<g id="node10" class="node">
<title>runtime</title>
<path fill="#ffedd5" stroke="#ea580c" stroke-width="1.5" d="M2062.98,-259.73C2062.98,-259.73 1916.01,-259.73 1916.01,-259.73 1910.01,-259.73 1904.01,-253.73 1904.01,-247.73 1904.01,-247.73 1904.01,-218.27 1904.01,-218.27 1904.01,-212.27 1910.01,-206.27 1916.01,-206.27 1916.01,-206.27 2062.98,-206.27 2062.98,-206.27 2068.98,-206.27 2074.98,-212.27 2074.98,-218.27 2074.98,-218.27 2074.98,-247.73 2074.98,-247.73 2074.98,-253.73 2068.98,-259.73 2062.98,-259.73"/>
<text xml:space="preserve" text-anchor="middle" x="1989.49" y="-239" font-family="Malgun Gothic" font-size="15.00">TableRuntime</text>
<text xml:space="preserve" text-anchor="middle" x="1989.49" y="-218.75" font-family="Malgun Gothic" font-size="15.00">메모리 rows + next_id</text>
</g>
<!-- bptree -->
<g id="node11" class="node">
<title>bptree</title>
<path fill="#ffedd5" stroke="#ea580c" stroke-width="1.5" d="M2307.57,-241.73C2307.57,-241.73 2204.1,-241.73 2204.1,-241.73 2198.1,-241.73 2192.1,-235.73 2192.1,-229.73 2192.1,-229.73 2192.1,-200.27 2192.1,-200.27 2192.1,-194.27 2198.1,-188.27 2204.1,-188.27 2204.1,-188.27 2307.57,-188.27 2307.57,-188.27 2313.57,-188.27 2319.57,-194.27 2319.57,-200.27 2319.57,-200.27 2319.57,-229.73 2319.57,-229.73 2319.57,-235.73 2313.57,-241.73 2307.57,-241.73"/>
<text xml:space="preserve" text-anchor="middle" x="2255.84" y="-221" font-family="Malgun Gothic" font-size="15.00">B+Tree Index</text>
<text xml:space="preserve" text-anchor="middle" x="2255.84" y="-200.75" font-family="Malgun Gothic" font-size="15.00">id &#45;&gt; row_index</text>
</g>
<!-- csv -->
<g id="node12" class="node">
<title>csv</title>
<path fill="#ffedd5" stroke="#ea580c" stroke-width="1.5" d="M2310.2,-339.73C2310.2,-339.73 2201.48,-339.73 2201.48,-339.73 2195.48,-339.73 2189.48,-333.73 2189.48,-327.73 2189.48,-327.73 2189.48,-298.27 2189.48,-298.27 2189.48,-292.27 2195.48,-286.27 2201.48,-286.27 2201.48,-286.27 2310.2,-286.27 2310.2,-286.27 2316.2,-286.27 2322.2,-292.27 2322.2,-298.27 2322.2,-298.27 2322.2,-327.73 2322.2,-327.73 2322.2,-333.73 2316.2,-339.73 2310.2,-339.73"/>
<text xml:space="preserve" text-anchor="middle" x="2255.84" y="-319" font-family="Malgun Gothic" font-size="15.00">CSV Storage</text>
<text xml:space="preserve" text-anchor="middle" x="2255.84" y="-298.75" font-family="Malgun Gothic" font-size="15.00">data/&lt;table&gt;.csv</text>
</g>
<!-- result -->
<g id="node13" class="node">
<title>result</title>
<path fill="#fce7f3" stroke="#db2777" stroke-width="2" d="M2052.1,-141.73C2052.1,-141.73 1926.88,-141.73 1926.88,-141.73 1920.88,-141.73 1914.88,-135.73 1914.88,-129.73 1914.88,-129.73 1914.88,-100.27 1914.88,-100.27 1914.88,-94.27 1920.88,-88.27 1926.88,-88.27 1926.88,-88.27 2052.1,-88.27 2052.1,-88.27 2058.1,-88.27 2064.1,-94.27 2064.1,-100.27 2064.1,-100.27 2064.1,-129.73 2064.1,-129.73 2064.1,-135.73 2058.1,-141.73 2052.1,-141.73"/>
<text xml:space="preserve" text-anchor="middle" x="1989.49" y="-121" font-family="Malgun Gothic" font-size="15.00">DbResult</text>
<text xml:space="preserve" text-anchor="middle" x="1989.49" y="-100.75" font-family="Malgun Gothic" font-size="15.00">구조화된 실행 결과</text>
</g>
<!-- cliout -->
<g id="node14" class="node">
<title>cliout</title>
<path fill="#fce7f3" stroke="#db2777" stroke-width="1.5" d="M2291.45,-133C2291.45,-133 2220.23,-133 2220.23,-133 2214.23,-133 2208.23,-127 2208.23,-121 2208.23,-121 2208.23,-109 2208.23,-109 2208.23,-103 2214.23,-97 2220.23,-97 2220.23,-97 2291.45,-97 2291.45,-97 2297.45,-97 2303.45,-103 2303.45,-109 2303.45,-109 2303.45,-121 2303.45,-121 2303.45,-127 2297.45,-133 2291.45,-133"/>
<text xml:space="preserve" text-anchor="middle" x="2255.84" y="-110.88" font-family="Malgun Gothic" font-size="15.00">CLI 표 출력</text>
</g>
<!-- jsonout -->
<g id="node15" class="node">
<title>jsonout</title>
<path fill="#fce7f3" stroke="#db2777" stroke-width="1.5" d="M2309.07,-52C2309.07,-52 2202.6,-52 2202.6,-52 2196.6,-52 2190.6,-46 2190.6,-40 2190.6,-40 2190.6,-28 2190.6,-28 2190.6,-22 2196.6,-16 2202.6,-16 2202.6,-16 2309.07,-16 2309.07,-16 2315.07,-16 2321.07,-22 2321.07,-28 2321.07,-28 2321.07,-40 2321.07,-40 2321.07,-46 2315.07,-52 2309.07,-52"/>
<text xml:space="preserve" text-anchor="middle" x="2255.84" y="-29.88" font-family="Malgun Gothic" font-size="15.00">JSON HTTP 응답</text>
</g>
</g>
</svg>
